<?xml version="1.0" encoding="utf-8"?>
<!-- Generator: Adobe Illustrator 26.0.3, SVG Export Plug-In . SVG Version: 6.00 Build 0)  -->
<svg version="1.1" id="Capa_1" xmlns="http://www.w3.org/2000/svg" xmlns:xlink="http://www.w3.org/1999/xlink" x="0px" y="0px"
	 viewBox="0 0 384 190" style="enable-background:new 0 0 384 190;" xml:space="preserve">
<style type="text/css">
	.st0{fill:#058C98;}
	.st1{fill:#3AADB6;}
	.st2{fill:#FFFFFF;}
	.st3{fill:url(#SVGID_1_);}
	.st4{fill:#ABCA3F;}
	
		.st5{opacity:0.45;fill:#36C986;stroke:#FFFFFF;stroke-width:2.858;stroke-linecap:round;stroke-linejoin:round;stroke-miterlimit:10;}
	
		.st6{opacity:0.45;fill:#3AADB6;stroke:#FFFFFF;stroke-width:2.8579;stroke-linecap:round;stroke-linejoin:round;stroke-miterlimit:10;}
	
		.st7{opacity:0.5;fill:#058C98;stroke:#FFFFFF;stroke-width:2.8579;stroke-linecap:round;stroke-linejoin:round;stroke-miterlimit:10;}
	.st8{fill:url(#SVGID_00000146468585773282356940000008585341992470765745_);}
</style>
<g>
	<g>
		<path class="st0" d="M220.65,158h6.8c3.92,0,7.46,1.37,7.46,5.86c0,5.09-3.8,6-8.09,6h-2.57v8.37h-3.6V158z M226.42,166.78
			c2.06,0,4.72-0.11,4.72-2.86c0-2.49-2.37-2.83-4.32-2.83h-2.57v5.69H226.42z"/>
		<path class="st0" d="M246.09,176.35H246c-0.97,1.54-2.57,2.23-4.4,2.23c-2.54,0-5-1.4-5-4.12c0-4.46,5.2-4.77,8.63-4.77h0.86
			v-0.37c0-1.69-1.31-2.57-3.14-2.57c-1.43,0-2.74,0.57-3.66,1.43l-1.8-1.8c1.51-1.54,3.66-2.2,5.83-2.2c5.86,0,5.86,4.23,5.86,6.17
			v7.89h-3.09V176.35z M245.89,172.09h-0.71c-1.89,0-5.14,0.14-5.14,2.11c0,1.26,1.29,1.8,2.4,1.8c2.34,0,3.46-1.23,3.46-3.14
			V172.09z"/>
		<path class="st0" d="M252.57,164.52H256v2.17h0.06c0.74-1.57,2.26-2.51,4.06-2.51c0.43,0,0.83,0.09,1.23,0.2v3.32
			c-0.57-0.14-1.11-0.26-1.66-0.26c-3.23,0-3.69,2.72-3.69,3.46v7.35h-3.43V164.52z"/>
		<path class="st0" d="M261.8,167.43v-2.92h2.83v-3.97h3.43v3.97h3.77v2.92h-3.77v6c0,1.37,0.4,2.23,1.91,2.23
			c0.6,0,1.43-0.11,1.86-0.43v2.89c-0.71,0.34-1.92,0.46-2.72,0.46c-3.63,0-4.49-1.63-4.49-4.86v-6.29H261.8z"/>
		<path class="st0" d="M274.24,164.52h3.26v2.2h0.06c0.63-1.37,1.91-2.54,4.2-2.54c3.69,0,5,2.6,5,5.4v8.66h-3.43v-6.94
			c0-1.51-0.11-4.03-2.52-4.03c-2.26,0-3.14,1.66-3.14,3.49v7.49h-3.43V164.52z"/>
		<path class="st0" d="M293.1,172.58c0.23,2.03,1.77,3.26,3.69,3.26c1.71,0,2.83-0.8,3.69-1.86l2.46,1.86
			c-1.6,1.97-3.63,2.74-5.8,2.74c-4.14,0-7.46-2.89-7.46-7.2c0-4.32,3.32-7.2,7.46-7.2c3.83,0,6.43,2.69,6.43,7.46v0.94H293.1z
			 M300.13,170.01c-0.03-2-1.34-3.26-3.49-3.26c-2.03,0-3.29,1.29-3.54,3.26H300.13z"/>
		<path class="st0" d="M306.47,164.52h3.43v2.17h0.06c0.74-1.57,2.26-2.51,4.06-2.51c0.43,0,0.83,0.09,1.23,0.2v3.32
			c-0.57-0.14-1.11-0.26-1.66-0.26c-3.23,0-3.69,2.72-3.69,3.46v7.35h-3.43V164.52z"/>
		<path class="st0" d="M324.62,168.32c-0.66-0.91-1.51-1.4-2.69-1.4c-0.91,0-2,0.43-2,1.46c0,2.46,7.4,0.46,7.4,5.8
			c0,3.26-3.12,4.4-5.92,4.4c-2.12,0-3.94-0.54-5.34-2.11l2.29-2.14c0.89,0.97,1.8,1.69,3.26,1.69c1,0,2.29-0.49,2.29-1.57
			c0-2.83-7.4-0.6-7.4-5.83c0-3.06,2.74-4.43,5.52-4.43c1.83,0,3.77,0.57,4.89,2.09L324.62,168.32z"/>
		<path class="st0" d="M333.14,166.43h0.06c0.54-1.14,1.92-2.26,4.03-2.26c3.69,0,5,2.6,5,5.4v8.66h-3.43v-6.94
			c0-1.51-0.11-4.03-2.51-4.03c-2.26,0-3.14,1.66-3.14,3.49v7.49h-3.43v-21.61h3.43V166.43z"/>
		<path class="st0" d="M347.57,157.8c1.26,0,2.23,0.89,2.23,2.06c0,1.17-0.97,2.06-2.23,2.06c-1.26,0-2.17-0.97-2.17-2.06
			C345.4,158.77,346.31,157.8,347.57,157.8z M345.88,164.52h3.43v13.72h-3.43V164.52z"/>
		<path class="st0" d="M352.97,164.52h3.26v2.06h0.06c1-1.66,2.8-2.4,4.72-2.4c4.23,0,6.77,3.14,6.77,7.2c0,4.06-2.72,7.2-6.63,7.2
			c-2.57,0-3.94-1.2-4.66-2.09h-0.09v8.26h-3.43V164.52z M360.31,167.26c-2.51,0-4.03,1.97-4.03,4.12c0,2.14,1.51,4.12,4.03,4.12
			c2.52,0,4.03-1.97,4.03-4.12C364.35,169.23,362.83,167.26,360.31,167.26z"/>
	</g>
	<path class="st1" d="M370.9,131.9v19.76h-18.58c-20.83,0-35.44-10.31-35.44-36.73V19.35h20.4v40.81h17.61v19.76h-17.61v35.01
		c0,11.38,4.94,16.97,15.04,16.97H370.9z"/>
	<g>
		<g>
			<g>
				<path class="st2" d="M202.16,122.34c0.37-3.13,0.53-4.04,0.74-8.14c2.27-45.55-10.51-89.76-70.56-103.13
					c-26.7-5.94-62.81,5.04-62.81,5.04s3.98,3.12,8.82,7.45C60.3,29.02,45.43,37.06,45.43,37.06s6.08,2.88,13.23,7.28
					c-19.73,10.14-36.23,27.1-36.23,27.1s7.85,1.19,17.54,4.15c-17.51,15.31-29.11,37.76-29.11,37.76s22.18-8.05,46.97,6.23
					c36.3,20.91,38.86,53.39,78.62,59.7c32.22,5.11,69.93-12.93,69.93-12.93S207.23,141.93,202.16,122.34z"/>
			</g>
			
				<linearGradient id="SVGID_1_" gradientUnits="userSpaceOnUse" x1="228.4247" y1="-639.1102" x2="228.4247" y2="-532.6215" gradientTransform="matrix(0.3729 -0.5654 0.5076 0.3348 263.2291 466.4208)">
				<stop  offset="0" style="stop-color:#F8B133"/>
				<stop  offset="0.1464" style="stop-color:#F8AF2F"/>
				<stop  offset="0.2859" style="stop-color:#F6A724"/>
				<stop  offset="0.4223" style="stop-color:#F49B11"/>
				<stop  offset="0.51" style="stop-color:#F29100"/>
				<stop  offset="0.83" style="stop-color:#E84E1B"/>
				<stop  offset="0.9427" style="stop-color:#E41B15"/>
				<stop  offset="1" style="stop-color:#E20613"/>
			</linearGradient>
			<path class="st3" d="M33.88,121c-14.2,4.63-18.76,16.44-18.76,16.44c11.77-3.91,16.03,2.97,17.21,5.18
				c8.34,15.65,29.58,8.49,35.38,6.46c-3.34,2.66-6,7.27-6,7.27c7.61-6.36,21.5-5.19,21.5-5.19C78.32,145.07,56.09,113.75,33.88,121
				z"/>
		</g>
		<g>
			<path class="st4" d="M186.97,93.25c-32.36-34.74-76.44-53.61-131.89-27.81c-25.65,11.93-44.23,47.91-44.23,47.91
				s22.18-8.05,46.97,6.23c36.3,20.91,38.86,53.39,78.62,59.7c32.22,5.11,69.93-12.93,69.93-12.93S209.82,117.78,186.97,93.25z"/>
			<path class="st5" d="M195.71,95.51c-21.56-41.61-58.98-70.6-120.09-58.88c-28.27,5.42-56.48,35.96-56.48,35.96
				s28.14,2.51,43.8,17.39c29.98,28.49,23.14,62.56,59.93,78.29c29.82,12.75,58.02-9.86,68.4-20.9
				C194.41,144.04,210.93,124.9,195.71,95.51z"/>
			<path class="st6" d="M202.42,107.81c-7.16-45.53-33.42-83.44-95.21-89.2c-28.58-2.66-65.15,18.56-65.15,18.56
				S67.99,47.35,78.1,65.83c19.36,35.38,5.28,64.54,35.19,89.67c24.24,20.37,52.86,9.1,68.32,0.39
				C185.86,153.49,207.48,139.95,202.42,107.81z"/>
			<path class="st7" d="M204.41,114.65c2.37-45.96-9.92-91.64-72.57-105.18c-27.26-5.89-65.71,6.05-65.71,6.05
				s22.61,14.81,28.5,34.8c11.28,38.29-7.81,62.83,15.56,93.04c18.95,24.48,52.51,20.86,65.79,15.2
				C180.17,156.78,202.73,147.1,204.41,114.65z"/>
			
				<linearGradient id="SVGID_00000059277578746218802660000000868419509308508085_" gradientUnits="userSpaceOnUse" x1="228.4247" y1="-639.1102" x2="228.4247" y2="-532.6215" gradientTransform="matrix(0.3729 -0.5654 0.5076 0.3348 263.2291 466.4208)">
				<stop  offset="0" style="stop-color:#F8B133"/>
				<stop  offset="0.1464" style="stop-color:#F8AF2F"/>
				<stop  offset="0.2859" style="stop-color:#F6A724"/>
				<stop  offset="0.4223" style="stop-color:#F49B11"/>
				<stop  offset="0.51" style="stop-color:#F29100"/>
				<stop  offset="0.83" style="stop-color:#E84E1B"/>
				<stop  offset="0.9427" style="stop-color:#E41B15"/>
				<stop  offset="1" style="stop-color:#E20613"/>
			</linearGradient>
			<path style="fill:url(#SVGID_00000059277578746218802660000000868419509308508085_);" d="M33.88,121
				c-14.2,4.63-18.76,16.44-18.76,16.44c11.77-3.91,16.03,2.97,17.21,5.18c8.34,15.65,29.58,8.49,35.38,6.46
				c-3.34,2.66-6,7.27-6,7.27c7.61-6.36,21.5-5.19,21.5-5.19C78.32,145.07,56.09,113.75,33.88,121z"/>
		</g>
		<path class="st2" d="M170.46,123.73c-0.19,0.22-0.36,0.44-0.56,0.65c-4.7,4.94-10.63,7.52-17.78,7.52
			c-7.15,0-13.08-2.58-17.99-7.52c-4.7-5.15-7.15-11.6-7.15-19.55c0-7.95,2.45-14.39,7.15-19.33c4.9-5.15,10.83-7.73,17.99-7.73
			c7.15,0,13.08,2.58,17.78,7.73c0.14,0.14,0.25,0.29,0.39,0.44h22.69c-2.17-5.12-5.26-9.85-9.39-14.18
			c-8.79-9.24-19.21-13.75-31.48-13.75c-12.47,0-22.89,4.51-31.68,13.75c-8.79,9.24-13.08,20.19-13.08,33.08
			c0,13.1,4.29,24.06,13.08,33.29c8.79,9.02,19.21,13.53,31.68,13.53c12.26,0,22.69-4.51,31.48-13.53c4.18-4.39,7.3-9.18,9.47-14.4
			H170.46z"/>
	</g>
	<path class="st1" d="M260.37,113.64h46.07c0,0,4.45-23.96-12.99-41.88c-9.11-9.36-20.19-13.75-33.08-13.75
		c-13.1,0-24.06,4.51-33.29,13.75c-9.23,9.24-13.75,20.19-13.75,33.08c0,13.1,4.51,24.06,13.75,33.29
		c9.24,9.02,20.19,13.53,33.29,13.53c12.89,0,23.84-4.51,33.08-13.53c4.39-4.39,7.68-9.18,9.96-14.4h-23.76
		c-0.2,0.22-0.38,0.44-0.59,0.65c-4.94,4.94-11.17,7.52-18.69,7.52c-7.52,0-13.75-2.58-18.9-7.52c-4.94-5.15-7.52-11.6-7.52-19.55
		c0-7.95,2.58-14.39,7.52-19.33c5.16-5.15,11.38-7.73,18.9-7.73c7.52,0,13.75,2.58,18.69,7.73c2.61,2.5,4.59,6.24,5.9,9.66h-24.58
		V113.64z"/>
</g>
</svg>
